<?xml version="1.0" encoding="UTF-8" standalone="no"?>
<!-- Created with Inkscape (http://www.inkscape.org/) -->

<svg
   width="5.7725387mm"
   height="5.7358837mm"
   viewBox="0 0 5.7725387 5.7358837"
   version="1.1"
   id="svg1"
   xmlns="http://www.w3.org/2000/svg"
   xmlns:svg="http://www.w3.org/2000/svg">
  <defs
     id="defs1">
    <clipPath
       clipPathUnits="userSpaceOnUse"
       id="clipPath52">
      <path
         d="M -32768,32767 H 32767 V -32768 H -32768 Z"
         transform="matrix(2.9334477,0,0,-2.9497646,-153.33303,2215.7612)"
         id="path52" />
    </clipPath>
  </defs>
  <g
     id="layer1">
    <path
       d="m 0,0 c -0.67,-2.19 -1.79,-4.52 -3.61,-6.64 -3.98,-4.63 -10.18,-7.02 -18.42,-7.12 h -0.03 c -0.24,-0.01 -6.02,0.03 -11.98,2.76 -5.68,2.61 -12.57,8.19 -13.15,19.96 -0.23,4.63 0.56,8.86 2.36,12.58 1.69,3.51 4.29,6.5 7.52,8.66 3.65,2.43 8.06,3.81 12.77,3.98 0.33,0.01 0.65,0.02 0.98,0.02 4.48,0 9.12,-1.09 13.5,-3.16 l -2.24,-4.73 c -3.95,1.87 -8.11,2.78 -12.06,2.64 -3.74,-0.13 -7.21,-1.21 -10.05,-3.1 -5.23,-3.49 -7.91,-9.4 -7.56,-16.63 0.36,-7.29 3.71,-12.46 9.97,-15.39 0.22,-0.1 0.44,-0.2 0.67,-0.3 0.14,-0.06 0.27,-0.11 0.41,-0.17 0.05,-0.02 0.1,-0.04 0.15,-0.06 0.06,-0.02 0.12,-0.05 0.18,-0.07 1.51,-0.59 2.98,-0.98 4.26,-1.24 6.25,-1.21 11.33,0.31 12.9,0.87 1.25,0.46 2.37,1.03 3.37,1.7 0,0 5.7,3.44 6.09,10.64 0,0.05 0.01,0.11 0.01,0.16 0,0.07 0,0.13 0.01,0.19 0.01,0.24 0.02,0.49 0.02,0.73 0,2.03 -0.35,3.71 -0.91,5.04 0,0.01 0,0.01 -0.01,0.02 -1.15,2.72 -3.17,4 -4.84,3.92 -0.43,-0.02 -0.77,-0.14 -1.02,-0.38 -0.2,-0.3 -0.19,-0.75 -0.1,-1.24 L -9.69,6.8 c 0.12,-0.6 0.16,-1.04 0.16,-1.64 0,-0.79 -0.13,-1.51 -0.39,-2.12 -0.67,-1.58 -2.15,-2.52 -4.29,-2.52 -2.53,0 -4.25,1.06 -5.29,3.22 -0.19,0.06 -0.37,0.12 -0.55,0.19 -0.34,-2.08 -1.82,-3.27 -4.12,-3.4 -0.14,-0.01 -0.29,-0.01 -0.44,-0.01 -2.96,0 -4.44,1.44 -5.52,4.2 V 0.96 h -2.74 -2.02 l -3.18,18.15 -0.06,0.33 h 0.23 5.21 l 0.05,-0.3 1.67,-9.58 c 0.42,-2.29 1.09,-3.62 2.04,-4.22 0.41,-0.26 0.88,-0.38 1.4,-0.38 1.72,0 2.12,1.36 1.8,3.16 l -1.74,10.06 -0.22,1.26 h 5.48 l 0.05,-0.29 0.78,-4.69 0.81,-4.9 c 0.56,-3.28 1.72,-4.6 3.44,-4.6 0.56,0 0.98,0.15 1.28,0.4 0.62,0.53 0.73,1.54 0.52,2.76 l -1.12,6.4 c -0.08,0.46 -0.12,0.89 -0.12,1.3 -0.02,1.76 0.67,2.94 2.11,3.48 h 0.01 c 0.49,0.18 1.06,0.29 1.72,0.32 l 0.01,0.01 c 0,0 4.22,0.24 7.5,-1.83 0.07,-0.04 0.13,-0.09 0.2,-0.13 h 0.01 c 0,0 0.01,0 0.01,-0.01 C 3.67,12.18 0,0 0,0"
       style="fill:#000000;fill-opacity:1;fill-rule:nonzero;stroke:none"
       transform="matrix(0.12026046,0,0,0.11959523,5.6797706,1.6457267)"
       clip-path="url(#clipPath52)"
       id="path53" />
  </g>
</svg>
